/* XPM */
static char * close_active_xpm[] = {
"18 28 120 2",
"  	c None",
". 	c #000000",
"+ 	c #6D7077",
"@ 	c #4D4F52",
"# 	c #4C4E52",
"$ 	c #4C4F51",
"% 	c #4D4E52",
"& 	c #4C4F52",
"* 	c #4C4E51",
"= 	c #4D4E51",
"- 	c #3F4042",
"; 	c #181818",
"> 	c #0F0F0F",
", 	c #4B4E51",
"' 	c #4B4D51",
") 	c #1B1C1C",
"! 	c #343436",
"~ 	c #363638",
"{ 	c #333536",
"] 	c #1C1C1C",
"^ 	c #4B4E50",
"/ 	c #4B4D50",
"( 	c #171717",
"_ 	c #404143",
": 	c #434446",
"< 	c #4C4D50",
"[ 	c #4A4D50",
"} 	c #525355",
"| 	c #6A6B6C",
"1 	c #6C6C6E",
"2 	c #545557",
"3 	c #4B4C4F",
"4 	c #D9D9D9",
"5 	c #FAFAFA",
"6 	c #7A7B7C",
"7 	c #7E7F80",
"8 	c #DDDDDD",
"9 	c #444547",
"0 	c #4B4D4F",
"a 	c #4A4C4F",
"b 	c #7D7D7D",
"c 	c #FFFFFF",
"d 	c #F8F8F8",
"e 	c #77787A",
"f 	c #818283",
"g 	c #969696",
"h 	c #4A4C4E",
"i 	c #343536",
"j 	c #818181",
"k 	c #FBFBFB",
"l 	c #FCFCFC",
"m 	c #989898",
"n 	c #323334",
"o 	c #494B4E",
"p 	c #4A4B4E",
"q 	c #AEAEAE",
"r 	c #ABABAB",
"s 	c #323234",
"t 	c #494C4E",
"u 	c #494B4D",
"v 	c #848586",
"w 	c #F6F6F6",
"x 	c #727374",
"y 	c #484B4D",
"z 	c #8B8B8D",
"A 	c #FDFDFD",
"B 	c #898989",
"C 	c #888888",
"D 	c #F5F6F6",
"E 	c #717173",
"F 	c #484A4D",
"G 	c #ECECED",
"H 	c #353637",
"I 	c #303133",
"J 	c #919191",
"K 	c #D1D2D2",
"L 	c #494A4D",
"M 	c #474A4C",
"N 	c #424345",
"O 	c #3F4040",
"P 	c #676767",
"Q 	c #313133",
"R 	c #727272",
"S 	c #3C3D3D",
"T 	c #48494C",
"U 	c #474A4B",
"V 	c #3B3C3E",
"W 	c #393A3C",
"X 	c #47494C",
"Y 	c #1E1E1E",
"Z 	c #393A3B",
"` 	c #393B3B",
" .	c #1F1F1F",
"..	c #47494B",
"+.	c #47484B",
"@.	c #202021",
"#.	c #1B1B1B",
"$.	c #4B4D4E",
"%.	c #4D5052",
"&.	c #5F6162",
"*.	c #616464",
"=.	c #616364",
"-.	c #626364",
";.	c #616365",
">.	c #626465",
",.	c #616465",
"'.	c #626464",
").	c #5E6162",
"!.	c #4D4F51",
"~.	c #47484A",
"{.	c #46484A",
"].	c #45484A",
"^.	c #46474A",
"/.	c #464749",
"(.	c #45474A",
"_.	c #454749",
":.	c #454849",
"<.	c #464849",
"[.	c #46494B",
"}.	c #46484B",
". . . . . . . . . . . . . . . . . . ",
"+ + + + + + + + + + + + + + + + + + ",
"@ @ @ @ @ @ @ @ @ @ @ @ @ @ @ @ @ @ ",
"# @ $ % & * $ @ # * % = # @ $ % & * ",
"* = * * $ * $ * * * * * * = * * $ * ",
"* = * * $ * $ * * * * * * = * * $ * ",
"* - ; > > > > > > > > > > > > ; - , ",
"' ) ! ~ ~ ~ ~ ~ ~ ~ ~ ~ ~ ~ ~ { ] ^ ",
"/ ( _ : : : : : : : : : : : : _ ( < ",
"[ ( : : : } | : : : : 1 2 : : : ( / ",
"3 ( : : : 4 5 6 : : 7 5 8 9 : : ( 0 ",
"a ( : : : b c d e f 5 c g : : : ( h ",
"h ( : : : i j c k l c m n : : : ( o ",
"p ( : : : : i q c c r s : : : : ( t ",
"u ( : : : : v l c c w x : : : : ( u ",
"y ( : : : z A c B C c D E : : : ( u ",
"F ( : : 9 G c j H I J c K : : : ( L ",
"M ( : : N O P ~ : : Q R S : : : ( T ",
"U ( : : : _ V : : : : W N : : : ( M ",
"X Y Z : : : : : : : : : : : : `  ...",
"+.h @.#.#.#.#.#.#.#.#.#.#.#.#.@.$...",
"..%.&.*.=.-.;.*.;.;.*.;.>.,.'.).!.~.",
"{.].^.{.].].^./.].(.{.{.{.].^.{.].].",
"_./.:./.].(.]._._.(.<._._./.:./.].(.",
"[.{.}.{.{.{.{.{.~.{.}.{.[.{.}.{.{.{.",
"_./.:./.].(.]._._.(.<._._./.:./.].(.",
"[.{.}.{.{.{.{.{.~.{.}.{.[.{.}.{.{.{.",
"_./.:./.].(.]._._.(.<._._./.:./.].(."};
