/* XPM */
static char * close_prelight_xpm[] = {
"18 28 124 2",
"  	c None",
". 	c #000000",
"+ 	c #6D7077",
"@ 	c #4D4F52",
"# 	c #4C4E52",
"$ 	c #4C4F51",
"% 	c #4D4E52",
"& 	c #4C4F52",
"* 	c #4C4E51",
"= 	c #4D4E51",
"- 	c #3F4042",
"; 	c #181818",
"> 	c #0F0F0F",
", 	c #4B4E51",
"' 	c #4B4D51",
") 	c #1B1C1C",
"! 	c #8F1313",
"~ 	c #CC0000",
"{ 	c #8D1415",
"] 	c #1C1C1C",
"^ 	c #4B4E50",
"/ 	c #4B4D50",
"( 	c #171717",
"_ 	c #F30000",
": 	c #FF0000",
"< 	c #4C4D50",
"[ 	c #4A4D50",
"} 	c #FF1515",
"| 	c #FF3535",
"1 	c #FF3737",
"2 	c #FF1717",
"3 	c #4B4C4F",
"4 	c #F1D0D0",
"5 	c #FCF9F9",
"6 	c #FE4B4B",
"7 	c #FD5151",
"8 	c #F3D5D5",
"9 	c #FF0202",
"0 	c #4B4D4F",
"a 	c #4A4C4F",
"b 	c #867979",
"c 	c #FFFFFF",
"d 	c #FAF7F7",
"e 	c #FF4747",
"f 	c #FD5555",
"g 	c #FCFAFA",
"h 	c #9D9393",
"i 	c #4A4C4E",
"j 	c #C60000",
"k 	c #867F7F",
"l 	c #FDFCFC",
"m 	c #9B9797",
"n 	c #BB0101",
"o 	c #494B4E",
"p 	c #4A4B4E",
"q 	c #C50000",
"r 	c #B1ADAD",
"s 	c #ADABAB",
"t 	c #BD0000",
"u 	c #494C4E",
"v 	c #494B4D",
"w 	c #FB5A5A",
"x 	c #F8F5F5",
"y 	c #FF4040",
"z 	c #484B4D",
"A 	c #FB6363",
"B 	c #FEFDFD",
"C 	c #8D8888",
"D 	c #8A8787",
"E 	c #FAF4F4",
"F 	c #FF3E3E",
"G 	c #484A4D",
"H 	c #FD0303",
"I 	c #F1EBEB",
"J 	c #877F7F",
"K 	c #C90000",
"L 	c #B80000",
"M 	c #939090",
"N 	c #E7CACA",
"O 	c #494A4D",
"P 	c #474A4C",
"Q 	c #FB0000",
"R 	c #603434",
"S 	c #6F6464",
"T 	c #B50101",
"U 	c #747171",
"V 	c #762828",
"W 	c #48494C",
"X 	c #474A4B",
"Y 	c #E10000",
"Z 	c #D90000",
"` 	c #FA0000",
" .	c #47494C",
"..	c #1E1E1E",
"+.	c #A61212",
"@.	c #A61213",
"#.	c #1F1F1F",
"$.	c #47494B",
"%.	c #47484B",
"&.	c #202021",
"*.	c #1B1B1B",
"=.	c #4B4D4E",
"-.	c #4D5052",
";.	c #5F6162",
">.	c #616464",
",.	c #616364",
"'.	c #626364",
").	c #616365",
"!.	c #626465",
"~.	c #616465",
"{.	c #626464",
"].	c #5E6162",
"^.	c #4D4F51",
"/.	c #47484A",
"(.	c #46484A",
"_.	c #45484A",
":.	c #46474A",
"<.	c #464749",
"[.	c #45474A",
"}.	c #454749",
"|.	c #454849",
"1.	c #464849",
"2.	c #46494B",
"3.	c #46484B",
". . . . . . . . . . . . . . . . . . ",
"+ + + + + + + + + + + + + + + + + + ",
"@ @ @ @ @ @ @ @ @ @ @ @ @ @ @ @ @ @ ",
"# @ $ % & * $ @ # * % = # @ $ % & * ",
"* = * * $ * $ * * * * * * = * * $ * ",
"* = * * $ * $ * * * * * * = * * $ * ",
"* - ; > > > > > > > > > > > > ; - , ",
"' ) ! ~ ~ ~ ~ ~ ~ ~ ~ ~ ~ ~ ~ { ] ^ ",
"/ ( _ : : : : : : : : : : : : _ ( < ",
"[ ( : : : } | : : : : 1 2 : : : ( / ",
"3 ( : : : 4 5 6 : : 7 5 8 9 : : ( 0 ",
"a ( : : : b c d e f g c h : : : ( i ",
"i ( : : : j k c g l c m n : : : ( o ",
"p ( : : : : q r c c s t : : : : ( u ",
"v ( : : : : w l c c x y : : : : ( v ",
"z ( : : : A B c C D c E F : : : ( v ",
"G ( : : H I c J K L M c N : : : ( O ",
"P ( : : Q R S ~ : : T U V : : : ( W ",
"X ( : : : _ Y : : : : Z ` : : : ( P ",
" ...+.: : : : : : : : : : : : @.#.$.",
"%.i &.*.*.*.*.*.*.*.*.*.*.*.*.&.=.$.",
"$.-.;.>.,.'.).>.).).>.).!.~.{.].^./.",
"(._.:.(._._.:.<._.[.(.(.(._.:.(._._.",
"}.<.|.<._.[._.}.}.[.1.}.}.<.|.<._.[.",
"2.(.3.(.(.(.(.(./.(.3.(.2.(.3.(.(.(.",
"}.<.|.<._.[._.}.}.[.1.}.}.<.|.<._.[.",
"2.(.3.(.(.(.(.(./.(.3.(.2.(.3.(.(.(.",
"}.<.|.<._.[._.}.}.[.1.}.}.<.|.<._.[."};
