/* XPM */
static char * hide_active_xpm[] = {
"18 28 84 1",
" 	c None",
".	c #000000",
"+	c #6D7077",
"@	c #4D4F52",
"#	c #4C4E52",
"$	c #4C4F51",
"%	c #4D4E52",
"&	c #4C4F52",
"*	c #4C4E51",
"=	c #4D4E51",
"-	c #3F4042",
";	c #181818",
">	c #0F0F0F",
",	c #4B4E51",
"'	c #4B4D51",
")	c #1B1C1C",
"!	c #343436",
"~	c #363638",
"{	c #333536",
"]	c #1C1C1C",
"^	c #4B4E50",
"/	c #4B4D50",
"(	c #171717",
"_	c #404143",
":	c #434446",
"<	c #4C4D50",
"[	c #4A4D50",
"}	c #4B4C4F",
"|	c #4B4D4F",
"1	c #4A4C4F",
"2	c #4A4C4E",
"3	c #868788",
"4	c #9B9B9C",
"5	c #7C7C7E",
"6	c #494B4E",
"7	c #4A4B4E",
"8	c #454648",
"9	c #FEFEFE",
"0	c #FFFFFF",
"a	c #E6E6E6",
"b	c #494C4E",
"c	c #494B4D",
"d	c #959596",
"e	c #AAAAAA",
"f	c #838383",
"g	c #484B4D",
"h	c #38393A",
"i	c #313233",
"j	c #393A3B",
"k	c #484A4D",
"l	c #494A4D",
"m	c #474A4C",
"n	c #48494C",
"o	c #474A4B",
"p	c #47494C",
"q	c #1E1E1E",
"r	c #393B3B",
"s	c #1F1F1F",
"t	c #47494B",
"u	c #47484B",
"v	c #202021",
"w	c #1B1B1B",
"x	c #4B4D4E",
"y	c #4D5052",
"z	c #5F6162",
"A	c #616464",
"B	c #616364",
"C	c #626364",
"D	c #616365",
"E	c #626465",
"F	c #616465",
"G	c #626464",
"H	c #5E6162",
"I	c #4D4F51",
"J	c #47484A",
"K	c #46494B",
"L	c #46484A",
"M	c #46484B",
"N	c #454749",
"O	c #464749",
"P	c #454849",
"Q	c #45484A",
"R	c #45474A",
"S	c #464849",
"..................",
"++++++++++++++++++",
"@@@@@@@@@@@@@@@@@@",
"#@$%&*$@#*%=#@$%&*",
"*=**$*$******=**$*",
"*=**$*$******=**$*",
"*-;>>>>>>>>>>>>;-,",
"')!~~~~~~~~~~~~{]^",
"/(_::::::::::::_(<",
"[(::::::::::::::(/",
"}(::::::::::::::(|",
"1(::::::::::::::(2",
"2(:::34444445:::(6",
"7(::89000000a:::(b",
"c(:::deeeeeef:::(c",
"g(:::hiiiiiij:::(c",
"k(::::::::::::::(l",
"m(::::::::::::::(n",
"o(::::::::::::::(m",
"pqj::::::::::::rst",
"u2vwwwwwwwwwwwwvxt",
"tyzABCDADDADEFGHIJ",
"KLMLLLLLJLMLKLMLLL",
"NOPOQRQNNRSNNOPOQR",
"KLMLLLLLJLMLKLMLLL",
"NOPOQRQNNRSNNOPOQR",
"KLMLLLLLJLMLKLMLLL",
"NOPOQRQNNRSNNOPOQR"};
