/* XPM */
static char * maximize_active_xpm[] = {
"18 28 95 2",
"  	c None",
". 	c #000000",
"+ 	c #6D7077",
"@ 	c #4D4F52",
"# 	c #4C4E52",
"$ 	c #4C4F51",
"% 	c #4D4E52",
"& 	c #4C4F52",
"* 	c #4C4E51",
"= 	c #4D4E51",
"- 	c #3F4042",
"; 	c #181818",
"> 	c #0F0F0F",
", 	c #4B4E51",
"' 	c #4B4D51",
") 	c #1B1C1C",
"! 	c #343436",
"~ 	c #363638",
"{ 	c #333536",
"] 	c #1C1C1C",
"^ 	c #4B4E50",
"/ 	c #4B4D50",
"( 	c #171717",
"_ 	c #404143",
": 	c #434446",
"< 	c #4C4D50",
"[ 	c #4A4D50",
"} 	c #545557",
"| 	c #69696B",
"1 	c #515254",
"2 	c #4B4C4F",
"3 	c #444547",
"4 	c #F9F9F9",
"5 	c #FFFFFF",
"6 	c #ECECEC",
"7 	c #4B4D4F",
"8 	c #4A4C4F",
"9 	c #7B7C7C",
"0 	c #474848",
"a 	c #858686",
"b 	c #EFEFEF",
"c 	c #4A4C4E",
"d 	c #6A6B6B",
"e 	c #757577",
"f 	c #EDEDED",
"g 	c #494B4E",
"h 	c #4A4B4E",
"i 	c #494C4E",
"j 	c #494B4D",
"k 	c #484B4D",
"l 	c #B0B0B0",
"m 	c #9B9B9C",
"n 	c #B6B6B7",
"o 	c #F2F2F2",
"p 	c #484A4D",
"q 	c #F0F0F0",
"r 	c #DDDDDD",
"s 	c #494A4D",
"t 	c #474A4C",
"u 	c #1A1A1B",
"v 	c #212122",
"w 	c #222223",
"x 	c #1E1E1E",
"y 	c #48494C",
"z 	c #474A4B",
"A 	c #47494C",
"B 	c #393A3B",
"C 	c #393B3B",
"D 	c #1F1F1F",
"E 	c #47494B",
"F 	c #47484B",
"G 	c #202021",
"H 	c #1B1B1B",
"I 	c #4B4D4E",
"J 	c #4D5052",
"K 	c #5F6162",
"L 	c #616464",
"M 	c #616364",
"N 	c #626364",
"O 	c #616365",
"P 	c #626465",
"Q 	c #616465",
"R 	c #626464",
"S 	c #5E6162",
"T 	c #4D4F51",
"U 	c #47484A",
"V 	c #46494B",
"W 	c #46484A",
"X 	c #46484B",
"Y 	c #454749",
"Z 	c #464749",
"` 	c #454849",
" .	c #45484A",
"..	c #45474A",
"+.	c #464849",
". . . . . . . . . . . . . . . . . . ",
"+ + + + + + + + + + + + + + + + + + ",
"@ @ @ @ @ @ @ @ @ @ @ @ @ @ @ @ @ @ ",
"# @ $ % & * $ @ # * % = # @ $ % & * ",
"* = * * $ * $ * * * * * * = * * $ * ",
"* = * * $ * $ * * * * * * = * * $ * ",
"* - ; > > > > > > > > > > > > ; - , ",
"' ) ! ~ ~ ~ ~ ~ ~ ~ ~ ~ ~ ~ ~ { ] ^ ",
"/ ( _ : : : : : : : : : : : : _ ( < ",
"[ ( : : : } | | | | | | 1 : : : ( / ",
"2 ( : : 3 4 5 5 5 5 5 5 6 : : : ( 7 ",
"8 ( : : 3 5 9 0 0 0 0 a b : : : ( c ",
"c ( : : 3 5 d : : : : e f : : : ( g ",
"h ( : : 3 5 d : : : : e f : : : ( i ",
"j ( : : 3 5 d : : : : e f : : : ( j ",
"k ( : : 3 5 l m m m m n o : : : ( j ",
"p ( : : : q 5 5 5 5 5 5 r : : : ( s ",
"t ( : : : u v w w w w v x : : : ( y ",
"z ( : : : : : : : : : : : : : : ( t ",
"A x B : : : : : : : : : : : : C D E ",
"F c G H H H H H H H H H H H H G I E ",
"E J K L M N O L O O L O P Q R S T U ",
"V W X W W W W W U W X W V W X W W W ",
"Y Z ` Z  ... .Y Y ..+.Y Y Z ` Z  ...",
"V W X W W W W W U W X W V W X W W W ",
"Y Z ` Z  ... .Y Y ..+.Y Y Z ` Z  ...",
"V W X W W W W W U W X W V W X W W W ",
"Y Z ` Z  ... .Y Y ..+.Y Y Z ` Z  ..."};
