/* XPM */
static char * maximize_inactive_xpm[] = {
"18 28 72 1",
" 	c None",
".	c #000000",
"+	c #6D7077",
"@	c #4D4F52",
"#	c #4C4E52",
"$	c #4C4F51",
"%	c #4D4E52",
"&	c #4C4F52",
"*	c #4C4E51",
"=	c #4D4E51",
"-	c #3F4042",
";	c #181818",
">	c #0F0F0F",
",	c #4B4E51",
"'	c #4B4D51",
")	c #1B1C1C",
"!	c #343436",
"~	c #363638",
"{	c #333536",
"]	c #1C1C1C",
"^	c #4B4E50",
"/	c #4B4D50",
"(	c #171717",
"_	c #404143",
":	c #434446",
"<	c #4C4D50",
"[	c #4A4D50",
"}	c #4B4C4F",
"|	c #4B4D4F",
"1	c #4A4C4F",
"2	c #4A4C4E",
"3	c #494B4E",
"4	c #4A4B4E",
"5	c #494C4E",
"6	c #494B4D",
"7	c #484B4D",
"8	c #484A4D",
"9	c #494A4D",
"0	c #474A4C",
"a	c #48494C",
"b	c #474A4B",
"c	c #47494C",
"d	c #1E1E1E",
"e	c #393A3B",
"f	c #393B3B",
"g	c #1F1F1F",
"h	c #47494B",
"i	c #47484B",
"j	c #202021",
"k	c #1B1B1B",
"l	c #4B4D4E",
"m	c #4D5052",
"n	c #5F6162",
"o	c #616464",
"p	c #616364",
"q	c #626364",
"r	c #616365",
"s	c #626465",
"t	c #616465",
"u	c #626464",
"v	c #5E6162",
"w	c #4D4F51",
"x	c #47484A",
"y	c #46494B",
"z	c #46484A",
"A	c #46484B",
"B	c #454749",
"C	c #464749",
"D	c #454849",
"E	c #45484A",
"F	c #45474A",
"G	c #464849",
"..................",
"++++++++++++++++++",
"@@@@@@@@@@@@@@@@@@",
"#@$%&*$@#*%=#@$%&*",
"*=**$*$******=**$*",
"*=**$*$******=**$*",
"*-;>>>>>>>>>>>>;-,",
"')!~~~~~~~~~~~~{]^",
"/(_::::::::::::_(<",
"[(::::::::::::::(/",
"}(::::::::::::::(|",
"1(::::::::::::::(2",
"2(::::::::::::::(3",
"4(::::::::::::::(5",
"6(::::::::::::::(6",
"7(::::::::::::::(6",
"8(::::::::::::::(9",
"0(::::::::::::::(a",
"b(::::::::::::::(0",
"cde::::::::::::fgh",
"i2jkkkkkkkkkkkkjlh",
"hmnopqrorrorstuvwx",
"yzAzzzzzxzAzyzAzzz",
"BCDCEFEBBFGBBCDCEF",
"yzAzzzzzxzAzyzAzzz",
"BCDCEFEBBFGBBCDCEF",
"yzAzzzzzxzAzyzAzzz",
"BCDCEFEBBFGBBCDCEF"};
