/* XPM */
static char * maximize_prelight_xpm[] = {
"18 28 101 2",
"  	c None",
". 	c #000000",
"+ 	c #6D7077",
"@ 	c #4D4F52",
"# 	c #4C4E52",
"$ 	c #4C4F51",
"% 	c #4D4E52",
"& 	c #4C4F52",
"* 	c #4C4E51",
"= 	c #4D4E51",
"- 	c #3F4042",
"; 	c #181818",
"> 	c #0F0F0F",
", 	c #4B4E51",
"' 	c #4B4D51",
") 	c #1B1C1C",
"! 	c #0C7D66",
"~ 	c #00886D",
"{ 	c #0E7B66",
"] 	c #1C1C1C",
"^ 	c #4B4E50",
"/ 	c #4B4D50",
"( 	c #171818",
"_ 	c #00A282",
": 	c #00AA88",
"< 	c #00A181",
"[ 	c #171717",
"} 	c #4C4D50",
"| 	c #4A4D50",
"1 	c #17B293",
"2 	c #33BBA0",
"3 	c #13B091",
"4 	c #00A987",
"5 	c #4B4C4F",
"6 	c #01AA88",
"7 	c #F8FBFA",
"8 	c #FFFFFF",
"9 	c #E8F2F0",
"0 	c #4B4D4F",
"a 	c #4A4C4F",
"b 	c #02AB89",
"c 	c #7A7E7C",
"d 	c #444C4B",
"e 	c #848887",
"f 	c #EFEFEF",
"g 	c #4A4C4E",
"h 	c #499D8C",
"i 	c #57A394",
"j 	c #EDEEED",
"k 	c #494B4E",
"l 	c #4A4B4E",
"m 	c #494C4E",
"n 	c #494B4D",
"o 	c #484B4D",
"p 	c #9ECAC2",
"q 	c #77D2C0",
"r 	c #A5CEC6",
"s 	c #F2F2F2",
"t 	c #484A4D",
"u 	c #F0F0F0",
"v 	c #DDDDDD",
"w 	c #494A4D",
"x 	c #474A4C",
"y 	c #05392E",
"z 	c #113931",
"A 	c #113B33",
"B 	c #113932",
"C 	c #034538",
"D 	c #48494C",
"E 	c #474A4B",
"F 	c #47494C",
"G 	c #1E1E1E",
"H 	c #0D9076",
"I 	c #0E8E75",
"J 	c #1F1F1F",
"K 	c #47494B",
"L 	c #47484B",
"M 	c #202021",
"N 	c #1B1B1B",
"O 	c #4B4D4E",
"P 	c #4D5052",
"Q 	c #5F6162",
"R 	c #616464",
"S 	c #616364",
"T 	c #626364",
"U 	c #616365",
"V 	c #626465",
"W 	c #616465",
"X 	c #626464",
"Y 	c #5E6162",
"Z 	c #4D4F51",
"` 	c #47484A",
" .	c #46494B",
"..	c #46484A",
"+.	c #46484B",
"@.	c #454749",
"#.	c #464749",
"$.	c #454849",
"%.	c #45484A",
"&.	c #45474A",
"*.	c #464849",
". . . . . . . . . . . . . . . . . . ",
"+ + + + + + + + + + + + + + + + + + ",
"@ @ @ @ @ @ @ @ @ @ @ @ @ @ @ @ @ @ ",
"# @ $ % & * $ @ # * % = # @ $ % & * ",
"* = * * $ * $ * * * * * * = * * $ * ",
"* = * * $ * $ * * * * * * = * * $ * ",
"* - ; > > > > > > > > > > > > ; - , ",
"' ) ! ~ ~ ~ ~ ~ ~ ~ ~ ~ ~ ~ ~ { ] ^ ",
"/ ( _ : : : : : : : : : : : : < [ } ",
"| ( : : : 1 2 2 2 2 2 2 3 : : 4 [ / ",
"5 ( : : 6 7 8 8 8 8 8 8 9 : : 4 [ 0 ",
"a ( : : b 8 c d d d d e f : : 4 [ g ",
"g ( : : b 8 h : : : : i j : : 4 [ k ",
"l ( : : b 8 h : : : : i j : : 4 [ m ",
"n ( : : b 8 h : : : : i j : : 4 [ n ",
"o ( : : b 8 p q q q q r s : : 4 [ n ",
"t ( : : : u 8 8 8 8 8 8 v : : 4 [ w ",
"x ( : : : y z A A A A B C : : 4 [ D ",
"E ( : : : : : : : : : : : : : 4 [ x ",
"F G H : : : : : : : : : : : : I J K ",
"L g M N N N N N N N N N N N N M O K ",
"K P Q R S T U R U U R U V W X Y Z ` ",
" ...+...........` ..+... ...+.......",
"@.#.$.#.%.&.%.@.@.&.*.@.@.#.$.#.%.&.",
" ...+...........` ..+... ...+.......",
"@.#.$.#.%.&.%.@.@.&.*.@.@.#.$.#.%.&.",
" ...+...........` ..+... ...+.......",
"@.#.$.#.%.&.%.@.@.&.*.@.@.#.$.#.%.&."};
