/* XPM */
static char * menu_active_xpm[] = {
"18 28 101 2",
"  	c None",
". 	c #000000",
"+ 	c #6D7077",
"@ 	c #4D4F52",
"# 	c #4C4E52",
"$ 	c #4C4F51",
"% 	c #4D4E52",
"& 	c #4C4F52",
"* 	c #4C4E51",
"= 	c #4D4E51",
"- 	c #3F4042",
"; 	c #181818",
"> 	c #0F0F0F",
", 	c #4B4E51",
"' 	c #4B4D51",
") 	c #1B1C1C",
"! 	c #343436",
"~ 	c #363638",
"{ 	c #333536",
"] 	c #1C1C1C",
"^ 	c #4B4E50",
"/ 	c #4B4D50",
"( 	c #171717",
"_ 	c #404143",
": 	c #434446",
"< 	c #4C4D50",
"[ 	c #4A4D50",
"} 	c #4B4C4F",
"| 	c #4B4D4F",
"1 	c #4A4C4F",
"2 	c #4A4C4E",
"3 	c #777779",
"4 	c #C3C3C4",
"5 	c #505153",
"6 	c #4A4B4D",
"7 	c #BCBCBD",
"8 	c #828384",
"9 	c #494B4E",
"0 	c #4A4B4E",
"a 	c #BDBDBE",
"b 	c #FFFFFF",
"c 	c #DADADA",
"d 	c #515254",
"e 	c #494A4C",
"f 	c #CCCCCC",
"g 	c #CDCECE",
"h 	c #494C4E",
"i 	c #494B4D",
"j 	c #282829",
"k 	c #C9C9C9",
"l 	c #DCDCDD",
"m 	c #CBCBCC",
"n 	c #E1E1E1",
"o 	c #2A2A2A",
"p 	c #484B4D",
"q 	c #212122",
"r 	c #252525",
"s 	c #38393B",
"t 	c #484A4D",
"u 	c #212222",
"v 	c #F3F3F3",
"w 	c #FBFBFB",
"x 	c #2F2F2F",
"y 	c #494A4D",
"z 	c #474A4C",
"A 	c #111111",
"B 	c #48494C",
"C 	c #474A4B",
"D 	c #414244",
"E 	c #3C3D3F",
"F 	c #47494C",
"G 	c #1E1E1E",
"H 	c #393A3B",
"I 	c #393B3B",
"J 	c #1F1F1F",
"K 	c #47494B",
"L 	c #47484B",
"M 	c #202021",
"N 	c #1B1B1B",
"O 	c #4B4D4E",
"P 	c #4D5052",
"Q 	c #5F6162",
"R 	c #616464",
"S 	c #616364",
"T 	c #626364",
"U 	c #616365",
"V 	c #626465",
"W 	c #616465",
"X 	c #626464",
"Y 	c #5E6162",
"Z 	c #4D4F51",
"` 	c #47484A",
" .	c #46494B",
"..	c #46484A",
"+.	c #46484B",
"@.	c #454749",
"#.	c #464749",
"$.	c #454849",
"%.	c #45484A",
"&.	c #45474A",
"*.	c #464849",
". . . . . . . . . . . . . . . . . . ",
"+ + + + + + + + + + + + + + + + + + ",
"@ @ @ @ @ @ @ @ @ @ @ @ @ @ @ @ @ @ ",
"# @ $ % & * $ @ # * % = # @ $ % & * ",
"* = * * $ * $ * * * * * * = * * $ * ",
"* = * * $ * $ * * * * * * = * * $ * ",
"* - ; > > > > > > > > > > > > ; - , ",
"' ) ! ~ ~ ~ ~ ~ ~ ~ ~ ~ ~ ~ ~ { ] ^ ",
"/ ( _ : : : : : : : : : : : : _ ( < ",
"[ ( : : : : : : : : : : : : : : ( / ",
"} ( : : : : : : : : : : : : : : ( | ",
"1 ( : : : : : : : : : : : : : : ( 2 ",
"2 ( : : : 3 4 5 : : 6 7 8 : : : ( 9 ",
"0 ( : : : a b c d e f b g : : : ( h ",
"i ( : : : j k b l m b n o : : : ( i ",
"p ( : : : _ q f b b n r s : : : ( i ",
"t ( : : : : _ u v w x s : : : : ( y ",
"z ( : : : : : _ A ( ! : : : : : ( B ",
"C ( : : : : : : D E : : : : : : ( z ",
"F G H : : : : : : : : : : : : I J K ",
"L 2 M N N N N N N N N N N N N M O K ",
"K P Q R S T U R U U R U V W X Y Z ` ",
" ...+...........` ..+... ...+.......",
"@.#.$.#.%.&.%.@.@.&.*.@.@.#.$.#.%.&.",
" ...+...........` ..+... ...+.......",
"@.#.$.#.%.&.%.@.@.&.*.@.@.#.$.#.%.&.",
" ...+...........` ..+... ...+.......",
"@.#.$.#.%.&.%.@.@.&.*.@.@.#.$.#.%.&."};
