/* XPM */
static char * menu_pressed_xpm[] = {
"18 28 95 2",
"  	c None",
". 	c #000000",
"+ 	c #6D7077",
"@ 	c #4D4F52",
"# 	c #4C4E52",
"$ 	c #4C4F51",
"% 	c #4D4E52",
"& 	c #4C4F52",
"* 	c #4C4E51",
"= 	c #4D4E51",
"- 	c #3F4042",
"; 	c #181818",
"> 	c #0F0F0F",
", 	c #4B4E51",
"' 	c #4B4D51",
") 	c #1B1C1C",
"! 	c #1C1C1C",
"~ 	c #4B4E50",
"{ 	c #4B4D50",
"] 	c #171717",
"^ 	c #4C4D50",
"/ 	c #4A4D50",
"( 	c #4B4C4F",
"_ 	c #4B4D4F",
": 	c #4A4C4F",
"< 	c #040404",
"[ 	c #010101",
"} 	c #080909",
"| 	c #080808",
"1 	c #4A4C4E",
"2 	c #777779",
"3 	c #C3C3C4",
"4 	c #505153",
"5 	c #111212",
"6 	c #1B1B1C",
"7 	c #4A4B4D",
"8 	c #BCBCBD",
"9 	c #7C7D7E",
"0 	c #494B4E",
"a 	c #4A4B4E",
"b 	c #030303",
"c 	c #BDBDBE",
"d 	c #FFFFFF",
"e 	c #DADADA",
"f 	c #515254",
"g 	c #494A4C",
"h 	c #CCCCCC",
"i 	c #BDBEBE",
"j 	c #494C4E",
"k 	c #494B4D",
"l 	c #0A0A0B",
"m 	c #C9C9C9",
"n 	c #DCDCDD",
"o 	c #CBCBCC",
"p 	c #D3D3D3",
"q 	c #020202",
"r 	c #484B4D",
"s 	c #E1E1E1",
"t 	c #484A4D",
"u 	c #050505",
"v 	c #F3F3F3",
"w 	c #FBFBFB",
"x 	c #494A4D",
"y 	c #474A4C",
"z 	c #48494C",
"A 	c #474A4B",
"B 	c #47494C",
"C 	c #1E1E1E",
"D 	c #1F1F1F",
"E 	c #47494B",
"F 	c #47484B",
"G 	c #202021",
"H 	c #1B1B1B",
"I 	c #4B4D4E",
"J 	c #4D5052",
"K 	c #5F6162",
"L 	c #616464",
"M 	c #616364",
"N 	c #626364",
"O 	c #616365",
"P 	c #626465",
"Q 	c #616465",
"R 	c #626464",
"S 	c #5E6162",
"T 	c #4D4F51",
"U 	c #47484A",
"V 	c #46494B",
"W 	c #46484A",
"X 	c #46484B",
"Y 	c #454749",
"Z 	c #464749",
"` 	c #454849",
" .	c #45484A",
"..	c #45474A",
"+.	c #464849",
". . . . . . . . . . . . . . . . . . ",
"+ + + + + + + + + + + + + + + + + + ",
"@ @ @ @ @ @ @ @ @ @ @ @ @ @ @ @ @ @ ",
"# @ $ % & * $ @ # * % = # @ $ % & * ",
"* = * * $ * $ * * * * * * = * * $ * ",
"* = * * $ * $ * * * * * * = * * $ * ",
"* - ; > > > > > > > > > > > > ; - , ",
"' ) . . . . . . . . . . . . . . ! ~ ",
"{ ] . . . . . . . . . . . . . . ] ^ ",
"/ ] . . . . . . . . . . . . . . ] { ",
"( ] . . . . . . . . . . . . . . ] _ ",
": ] . . . < < < . [ } } | . . . ] 1 ",
"1 ] . . [ 2 3 4 5 6 7 8 9 . . . ] 0 ",
"a ] . . b c d e f g h d i . . . ] j ",
"k ] . . . l m d n o d p q . . . ] k ",
"r ] . . . . | h d d s b . . . . ] k ",
"t ] . . . . . u v w q . . . . . ] x ",
"y ] . . . . . . . . . . . . . . ] z ",
"A ] . . . . . . . . . . . . . . ] y ",
"B C . . . . . . . . . . . . . . D E ",
"F 1 G H H H H H H H H H H H H G I E ",
"E J K L M N O L O O L O P Q R S T U ",
"V W X W W W W W U W X W V W X W W W ",
"Y Z ` Z  ... .Y Y ..+.Y Y Z ` Z  ...",
"V W X W W W W W U W X W V W X W W W ",
"Y Z ` Z  ... .Y Y ..+.Y Y Z ` Z  ...",
"V W X W W W W W U W X W V W X W W W ",
"Y Z ` Z  ... .Y Y ..+.Y Y Z ` Z  ..."};
