/* XPM */
static char * shade_active_xpm[] = {
"18 28 73 1",
" 	c None",
".	c #000000",
"+	c #6D7077",
"@	c #4D4F52",
"#	c #4C4E52",
"$	c #4C4F51",
"%	c #4D4E52",
"&	c #4C4F52",
"*	c #4C4E51",
"=	c #4D4E51",
"-	c #3F4042",
";	c #181818",
">	c #0F0F0F",
",	c #4B4E51",
"'	c #4B4D51",
")	c #1B1C1C",
"!	c #343436",
"~	c #363638",
"{	c #333536",
"]	c #1C1C1C",
"^	c #4B4E50",
"/	c #4B4D50",
"(	c #171717",
"_	c #404143",
":	c #434446",
"<	c #4C4D50",
"[	c #4A4D50",
"}	c #4B4C4F",
"|	c #FFFFFF",
"1	c #4B4D4F",
"2	c #4A4C4F",
"3	c #4A4C4E",
"4	c #494B4E",
"5	c #4A4B4E",
"6	c #494C4E",
"7	c #494B4D",
"8	c #484B4D",
"9	c #484A4D",
"0	c #494A4D",
"a	c #474A4C",
"b	c #48494C",
"c	c #474A4B",
"d	c #47494C",
"e	c #1E1E1E",
"f	c #393A3B",
"g	c #393B3B",
"h	c #1F1F1F",
"i	c #47494B",
"j	c #47484B",
"k	c #202021",
"l	c #1B1B1B",
"m	c #4B4D4E",
"n	c #4D5052",
"o	c #5F6162",
"p	c #616464",
"q	c #616364",
"r	c #626364",
"s	c #616365",
"t	c #626465",
"u	c #616465",
"v	c #626464",
"w	c #5E6162",
"x	c #4D4F51",
"y	c #47484A",
"z	c #46494B",
"A	c #46484A",
"B	c #46484B",
"C	c #454749",
"D	c #464749",
"E	c #454849",
"F	c #45484A",
"G	c #45474A",
"H	c #464849",
"..................",
"++++++++++++++++++",
"@@@@@@@@@@@@@@@@@@",
"#@$%&*$@#*%=#@$%&*",
"*=**$*$******=**$*",
"*=**$*$******=**$*",
"*-;>>>>>>>>>>>>;-,",
"')!~~~~~~~~~~~~{]^",
"/(_::::::::::::_(<",
"[(::::::::::::::(/",
"}(::::::||::::::(1",
"2(:::::||||:::::(3",
"3(::::||||||::::(4",
"5(:::||||||||:::(6",
"7(::::::::::::::(7",
"8(:::||||||||:::(7",
"9(:::||||||||:::(0",
"a(::::::::::::::(b",
"c(::::::::::::::(a",
"def::::::::::::ghi",
"j3kllllllllllllkmi",
"inopqrspsspstuvwxy",
"zABAAAAAyABAzABAAA",
"CDEDFGFCCGHCCDEDFG",
"zABAAAAAyABAzABAAA",
"CDEDFGFCCGHCCDEDFG",
"zABAAAAAyABAzABAAA",
"CDEDFGFCCGHCCDEDFG"};
