/* XPM */
static char * shade_pressed_xpm[] = {
"18 28 66 1",
" 	c None",
".	c #000000",
"+	c #6D7077",
"@	c #4D4F52",
"#	c #4C4E52",
"$	c #4C4F51",
"%	c #4D4E52",
"&	c #4C4F52",
"*	c #4C4E51",
"=	c #4D4E51",
"-	c #3F4042",
";	c #181818",
">	c #0F0F0F",
",	c #4B4E51",
"'	c #4B4D51",
")	c #1B1C1C",
"!	c #1C1C1C",
"~	c #4B4E50",
"{	c #4B4D50",
"]	c #171717",
"^	c #4C4D50",
"/	c #4A4D50",
"(	c #4B4C4F",
"_	c #FFFFFF",
":	c #4B4D4F",
"<	c #4A4C4F",
"[	c #4A4C4E",
"}	c #494B4E",
"|	c #4A4B4E",
"1	c #494C4E",
"2	c #494B4D",
"3	c #484B4D",
"4	c #484A4D",
"5	c #494A4D",
"6	c #474A4C",
"7	c #48494C",
"8	c #474A4B",
"9	c #47494C",
"0	c #1E1E1E",
"a	c #1F1F1F",
"b	c #47494B",
"c	c #47484B",
"d	c #202021",
"e	c #1B1B1B",
"f	c #4B4D4E",
"g	c #4D5052",
"h	c #5F6162",
"i	c #616464",
"j	c #616364",
"k	c #626364",
"l	c #616365",
"m	c #626465",
"n	c #616465",
"o	c #626464",
"p	c #5E6162",
"q	c #4D4F51",
"r	c #47484A",
"s	c #46494B",
"t	c #46484A",
"u	c #46484B",
"v	c #454749",
"w	c #464749",
"x	c #454849",
"y	c #45484A",
"z	c #45474A",
"A	c #464849",
"..................",
"++++++++++++++++++",
"@@@@@@@@@@@@@@@@@@",
"#@$%&*$@#*%=#@$%&*",
"*=**$*$******=**$*",
"*=**$*$******=**$*",
"*-;>>>>>>>>>>>>;-,",
"')..............!~",
"{]..............]^",
"/]..............]{",
"(]......__......]:",
"<].....____.....][",
"[]....______....]}",
"|]...________...]1",
"2]..............]2",
"3]...________...]2",
"4]...________...]5",
"6]..............]7",
"8]..............]6",
"90..............ab",
"c[deeeeeeeeeeeedfb",
"bghijklillilmnopqr",
"stutttttrtutstuttt",
"vwxwyzyvvzAvvwxwyz",
"stutttttrtutstuttt",
"vwxwyzyvvzAvvwxwyz",
"stutttttrtutstuttt",
"vwxwyzyvvzAvvwxwyz"};
