/* XPM */
static char * stick_pressed_xpm[] = {
"18 28 68 1",
" 	c None",
".	c #000000",
"+	c #6D7077",
"@	c #4D4F52",
"#	c #4C4E52",
"$	c #4C4F51",
"%	c #4D4E52",
"&	c #4C4F52",
"*	c #4C4E51",
"=	c #4D4E51",
"-	c #3F4042",
";	c #181818",
">	c #0F0F0F",
",	c #4B4E51",
"'	c #4B4D51",
")	c #1B1C1C",
"!	c #060607",
"~	c #060707",
"{	c #1C1C1C",
"]	c #4B4E50",
"^	c #4B4D50",
"/	c #171717",
"(	c #4C4D50",
"_	c #4A4D50",
":	c #4B4C4F",
"<	c #FFFFFF",
"[	c #4B4D4F",
"}	c #4A4C4F",
"|	c #4A4C4E",
"1	c #494B4E",
"2	c #4A4B4E",
"3	c #494C4E",
"4	c #494B4D",
"5	c #484B4D",
"6	c #484A4D",
"7	c #494A4D",
"8	c #474A4C",
"9	c #48494C",
"0	c #474A4B",
"a	c #47494C",
"b	c #1E1E1E",
"c	c #1F1F1F",
"d	c #47494B",
"e	c #47484B",
"f	c #202021",
"g	c #1B1B1B",
"h	c #4B4D4E",
"i	c #4D5052",
"j	c #5F6162",
"k	c #616464",
"l	c #616364",
"m	c #626364",
"n	c #616365",
"o	c #626465",
"p	c #616465",
"q	c #626464",
"r	c #5E6162",
"s	c #4D4F51",
"t	c #47484A",
"u	c #46494B",
"v	c #46484A",
"w	c #46484B",
"x	c #454749",
"y	c #464749",
"z	c #454849",
"A	c #45484A",
"B	c #45474A",
"C	c #464849",
"..................",
"++++++++++++++++++",
"@@@@@@@@@@@@@@@@@@",
"#@$%&*$@#*%=#@$%&*",
"*=**$*$******=**$*",
"*=**$*$******=**$*",
"*-;>>>>>>>>>>>>;-,",
"')!............~{]",
"^/............../(",
"_/............../^",
":/......<<....../[",
"}/......<<....../|",
"|/......<<....../1",
"2/...<<<<<<<<.../3",
"4/...<<<<<<<<.../4",
"5/......<<....../4",
"6/......<<....../7",
"8/......<<....../9",
"0/............../8",
"ab..............cd",
"e|fggggggggggggfhd",
"dijklmnknnknopqrst",
"uvwvvvvvtvwvuvwvvv",
"xyzyABAxxBCxxyzyAB",
"uvwvvvvvtvwvuvwvvv",
"xyzyABAxxBCxxyzyAB",
"uvwvvvvvtvwvuvwvvv",
"xyzyABAxxBCxxyzyAB"};
