/* XPM */
static char * top_right_inactive_xpm[] = {
"5 28 51 1",
" 	c None",
".	c #111111",
"+	c #060606",
"@	c #5B5D63",
"#	c #3F4145",
"$	c #1C1C1E",
"%	c #54565A",
"&	c #585A5F",
"*	c #53555A",
"=	c #1D1E20",
"-	c #4D4F52",
";	c #4F5154",
">	c #4F5155",
",	c #37383B",
"'	c #040403",
")	c #4C4E51",
"!	c #4E5053",
"~	c #44474A",
"{	c #0A0A09",
"]	c #484A4D",
"^	c #080808",
"/	c #4B4D50",
"(	c #47494B",
"_	c #070707",
":	c #4B4D4F",
"<	c #4E5052",
"[	c #47494A",
"}	c #45484A",
"|	c #4A4C4E",
"1	c #4D4F51",
"2	c #46474A",
"3	c #494B4E",
"4	c #45474A",
"5	c #4C4E50",
"6	c #444649",
"7	c #080707",
"8	c #434648",
"9	c #484A4C",
"0	c #47494C",
"a	c #4A4C4F",
"b	c #434448",
"c	c #434547",
"d	c #46484A",
"e	c #494B4D",
"f	c #424446",
"g	c #070807",
"h	c #424345",
"i	c #414344",
"j	c #414445",
"k	c #454749",
"l	c #414345",
".+   ",
"@#$  ",
"%&*= ",
"-;>,'",
"))!~{",
"));]^",
"//!(_",
"//!(_",
"::<[_",
"::-}_",
"||12_",
"33)4_",
"33)4_",
"33567",
"]]/87",
"99:87",
"00ab_",
"00|c_",
"((|c_",
"ddefg",
"ddeh_",
"dd9i_",
"ddej_",
"kk9l_",
"ddeh_",
"dd9i_",
"ddej_",
"kk9l_"};
