/* XPM */
static char * top_right_active_xpm[] = {
"5 28 64 1",
" 	c None",
".	c #151518",
"+	c #060607",
"@	c #000000",
"#	c #48494E",
"$	c #2F3034",
"%	c #0F1011",
"&	c #010101",
"*	c #585A5E",
"=	c #545659",
"-	c #3E3F43",
";	c #151517",
">	c #4F5154",
",	c #525457",
"'	c #4E5054",
")	c #323335",
"!	c #090908",
"~	c #4C4E51",
"{	c #4E5053",
"]	c #505255",
"^	c #3E4042",
"/	c #111212",
"(	c #515356",
"_	c #434345",
":	c #4B4D50",
"<	c #4D4F52",
"[	c #424446",
"}	c #101111",
"|	c #414446",
"1	c #4B4D4F",
"2	c #4D4F51",
"3	c #505254",
"4	c #414345",
"5	c #4F5254",
"6	c #404245",
"7	c #101011",
"8	c #4A4C4E",
"9	c #4E5153",
"0	c #404145",
"a	c #494B4E",
"b	c #3F4145",
"c	c #3F4144",
"d	c #4D5052",
"e	c #3F4042",
"f	c #101010",
"g	c #484A4D",
"h	c #3E4043",
"i	c #111010",
"j	c #484A4C",
"k	c #4D4E51",
"l	c #47494C",
"m	c #3E3E42",
"n	c #3E3F41",
"o	c #47494B",
"p	c #4B4E50",
"q	c #3E3F42",
"r	c #46484A",
"s	c #3D3E41",
"t	c #101110",
"u	c #3D3E3E",
"v	c #4B4D4E",
"w	c #3C3E3F",
"x	c #0F1010",
"y	c #454749",
".+@  ",
"#$%& ",
"*=-;@",
">,')!",
"~{]^/",
"~{(_/",
":<][}",
":<]|}",
"1234}",
"12567",
"8:907",
"a:{b7",
"a:{c7",
"a:def",
"g82hi",
"j8khf",
"la~mf",
"la~nf",
"ojpqf",
"rj1st",
"rj1uf",
"rjvwx",
"ro8wx",
"yo8wx",
"rj1uf",
"rjvwx",
"ro8wx",
"yo8wx"};
