/* XPM */
static char * top_left_active_xpm[] = {
"5 28 77 1",
" 	c None",
".	c #020202",
"+	c #0B0B0C",
"@	c #1D1D1F",
"#	c #030303",
"$	c #18191B",
"%	c #3C3D42",
"&	c #52545A",
"*	c #010101",
"=	c #151616",
"-	c #46484C",
";	c #5C5E64",
">	c #5C5F63",
",	c #060606",
"'	c #303133",
")	c #57595D",
"!	c #54575A",
"~	c #4C4E51",
"{	c #101112",
"]	c #3D3F42",
"^	c #525458",
"/	c #4C4E50",
"(	c #131414",
"_	c #3F4244",
":	c #525559",
"<	c #4D4F52",
"[	c #121212",
"}	c #3E4042",
"|	c #535559",
"1	c #4C4E52",
"2	c #4B4D50",
"3	c #121213",
"4	c #535558",
"5	c #4A4C4F",
"6	c #535557",
"7	c #4B4D4F",
"8	c #3D3F41",
"9	c #525457",
"0	c #3D3E40",
"a	c #515356",
"b	c #4A4C4E",
"c	c #3D3E41",
"d	c #505356",
"e	c #4C4D4F",
"f	c #494B4D",
"g	c #4B4C4F",
"h	c #484A4E",
"i	c #3C3E40",
"j	c #505355",
"k	c #3C3D3F",
"l	c #505255",
"m	c #494B4E",
"n	c #484A4D",
"o	c #111212",
"p	c #3B3D3F",
"q	c #4F5154",
"r	c #4A4B4E",
"s	c #484A4C",
"t	c #3B3D3E",
"u	c #4E5153",
"v	c #494A4D",
"w	c #47494C",
"x	c #4F5153",
"y	c #494A4C",
"z	c #47494B",
"A	c #3A3C3D",
"B	c #4E5053",
"C	c #494B4C",
"D	c #3A3B3D",
"E	c #46484A",
"F	c #111112",
"G	c #393C3D",
"H	c #4D4F51",
"I	c #454749",
"J	c #4C4F51",
"K	c #393B3D",
"L	c #48494B",
"  .+@",
" #$%&",
"*=-;>",
",')!~",
"{]^/~",
"(_:<~",
"[}|12",
"3}4~5",
"3]6/7",
"38925",
"[0a7b",
"[cdef",
"[0dgh",
"[ijbf",
"[klmn",
"opqrs",
"otuvw",
"otxyz",
"oABCz",
"oD<sE",
"FGHzI",
"FGJzI",
"FKHzE",
"FKJLI",
"FGHzI",
"FGJzI",
"FKHzE",
"FKJLI"};
