/* XPM */
static char * top_right_active_shaded_xpm[] = {
"5 28 52 1",
" 	c None",
".	c #101011",
"+	c #060607",
"@	c #010101",
"#	c #5C5E64",
"$	c #43454A",
"%	c #18191A",
"&	c #070707",
"*	c #54565A",
"=	c #5A5D62",
"-	c #4E5054",
";	c #161618",
">	c #000000",
",	c #4D4F52",
"'	c #4F5154",
")	c #515456",
"!	c #343437",
"~	c #020202",
"{	c #4C4E51",
"]	c #4E5053",
"^	c #46484A",
"/	c #0A0A09",
"(	c #484A4D",
"_	c #080808",
":	c #4B4D50",
"<	c #47494B",
"[	c #4B4D4F",
"}	c #4E5052",
"|	c #47494A",
"1	c #45484A",
"2	c #4A4C4E",
"3	c #4D4F51",
"4	c #46474A",
"5	c #494B4E",
"6	c #45474A",
"7	c #4C4E50",
"8	c #444649",
"9	c #080707",
"0	c #434648",
"a	c #484A4C",
"b	c #47494C",
"c	c #4A4C4F",
"d	c #434448",
"e	c #434547",
"f	c #494B4D",
"g	c #424446",
"h	c #070807",
"i	c #424345",
"j	c #414344",
"k	c #414445",
"l	c #454749",
"m	c #414345",
".+@  ",
"#$%& ",
"*=-;>",
",')!~",
"{{]^/",
"{{'(_",
"::]<&",
"::]<&",
"[[}|&",
"[[,1&",
"2234&",
"55{6&",
"55{6&",
"55789",
"((:09",
"aa[09",
"bbcd&",
"bb2e&",
"<<2e&",
"^^fgh",
"^^fi&",
"^^aj&",
"^^fk&",
"llam&",
"^^fi&",
"^^aj&",
"^^fk&",
"llam&"};
