/* XPM */
static char * top_left_inactive_xpm[] = {
"5 28 75 1",
" 	c None",
".	c #040404",
"+	c #0F0F11",
"@	c #1E1E21",
"#	c #090809",
"$	c #1E1E20",
"%	c #3E4044",
"&	c #515559",
"*	c #030303",
"=	c #1E1E1F",
"-	c #494B50",
";	c #5C5E63",
">	c #5C5F63",
",	c #0C0B0D",
"'	c #353639",
")	c #56585C",
"!	c #54565A",
"~	c #4C4E51",
"{	c #121213",
"]	c #3D3F41",
"^	c #525457",
"/	c #4C4E50",
"(	c #131314",
"_	c #3F4144",
":	c #525658",
"<	c #4D4F52",
"[	c #121212",
"}	c #3E4042",
"|	c #535659",
"1	c #4C4E52",
"2	c #4B4D50",
"3	c #535558",
"4	c #4A4C4F",
"5	c #3D3F42",
"6	c #535557",
"7	c #4B4D4F",
"8	c #3D3E40",
"9	c #515356",
"0	c #4A4C4E",
"a	c #3D3E41",
"b	c #505356",
"c	c #4C4D4F",
"d	c #494B4D",
"e	c #4B4C4F",
"f	c #484A4E",
"g	c #3C3E40",
"h	c #505355",
"i	c #3C3D3F",
"j	c #505255",
"k	c #494B4E",
"l	c #484A4D",
"m	c #111212",
"n	c #3B3D3F",
"o	c #4F5154",
"p	c #4A4B4E",
"q	c #484A4C",
"r	c #3B3D3E",
"s	c #4E5153",
"t	c #494A4D",
"u	c #47494C",
"v	c #4F5153",
"w	c #494A4C",
"x	c #47494B",
"y	c #3A3C3D",
"z	c #4E5053",
"A	c #494B4C",
"B	c #3A3B3D",
"C	c #46484A",
"D	c #111112",
"E	c #393C3D",
"F	c #4D4F51",
"G	c #454749",
"H	c #4C4F51",
"I	c #393B3D",
"J	c #48494B",
"  .+@",
" #$%&",
"*=-;>",
",')!~",
"{]^/~",
"(_:<~",
"[}|12",
"{}3~4",
"{56/7",
"{]^24",
"[8970",
"[abcd",
"[8bef",
"[gh0d",
"[ijkl",
"mnopq",
"mrstu",
"mrvwx",
"myzAx",
"mB<qC",
"DEFxG",
"DEHxG",
"DIFxC",
"DIHJG",
"DEFxG",
"DEHxG",
"DIFxC",
"DIHJG"};
