/* XPM */
static char * top_left_active_shaded_xpm[] = {
"5 28 77 1",
" 	c None",
".	c #050505",
"+	c #100F10",
"@	c #1E1F21",
"#	c #0F0E10",
"$	c #222326",
"%	c #3F4145",
"&	c #515559",
"*	c #040404",
"=	c #232324",
"-	c #4C4E53",
";	c #5C5E64",
">	c #5C5F63",
",	c #0B0A0B",
"'	c #353638",
")	c #56585C",
"!	c #55575A",
"~	c #4C4E51",
"{	c #111213",
"]	c #3C3E40",
"^	c #515457",
"/	c #4C4E50",
"(	c #131313",
"_	c #3F4144",
":	c #535658",
"<	c #4D4F52",
"[	c #121212",
"}	c #3E4042",
"|	c #535659",
"1	c #4C4E52",
"2	c #4B4D50",
"3	c #121213",
"4	c #535558",
"5	c #4A4C4F",
"6	c #3D3F42",
"7	c #535557",
"8	c #4B4D4F",
"9	c #3D3F41",
"0	c #525457",
"a	c #3D3E40",
"b	c #515356",
"c	c #4A4C4E",
"d	c #3D3E41",
"e	c #505356",
"f	c #4C4D4F",
"g	c #494B4D",
"h	c #4B4C4F",
"i	c #484A4E",
"j	c #505355",
"k	c #3C3D3F",
"l	c #505255",
"m	c #494B4E",
"n	c #484A4D",
"o	c #111212",
"p	c #3B3D3F",
"q	c #4F5154",
"r	c #4A4B4E",
"s	c #484A4C",
"t	c #3B3D3E",
"u	c #4E5153",
"v	c #494A4D",
"w	c #47494C",
"x	c #4F5153",
"y	c #494A4C",
"z	c #47494B",
"A	c #3A3C3D",
"B	c #4E5053",
"C	c #494B4C",
"D	c #3A3B3D",
"E	c #46484A",
"F	c #111112",
"G	c #393C3D",
"H	c #4D4F51",
"I	c #454749",
"J	c #4C4F51",
"K	c #393B3D",
"L	c #48494B",
"  .+@",
" #$%&",
"*=-;>",
",')!~",
"{]^/~",
"(_:<~",
"[}|12",
"3}4~5",
"367/8",
"39025",
"[ab8c",
"[defg",
"[aehi",
"[]jcg",
"[klmn",
"opqrs",
"otuvw",
"otxyz",
"oABCz",
"oD<sE",
"FGHzI",
"FGJzI",
"FKHzE",
"FKJLI",
"FGHzI",
"FGJzI",
"FKHzE",
"FKJLI"};
